<svg class="animated" id="freepik_stories-horror-video-game" xmlns="http://www.w3.org/2000/svg" viewBox="0 0 750 500" version="1.1" xmlns:xlink="http://www.w3.org/1999/xlink" xmlns:svgjs="http://svgjs.com/svgjs"><style>svg#freepik_stories-horror-video-game:not(.animated) .animable {opacity: 0;}svg#freepik_stories-horror-video-game.animated #freepik--background-simple--inject-2 {animation: 1.5s Infinite  linear wind;animation-delay: 0s;}svg#freepik_stories-horror-video-game.animated #freepik--device-1--inject-2 {animation: 1s 1 forwards cubic-bezier(.36,-0.01,.5,1.38) zoomOut;animation-delay: 0s;}svg#freepik_stories-horror-video-game.animated #freepik--speech-bubble--inject-2 {animation: 1.5s Infinite  linear heartbeat;animation-delay: 0s;}svg#freepik_stories-horror-video-game.animated #freepik--Character--inject-2 {animation: 1.5s Infinite  linear shake;animation-delay: 0s;}            @keyframes wind {                0% {                    transform: rotate( 0deg );                }                25% {                    transform: rotate( 1deg );                }                75% {                    transform: rotate( -1deg );                }            }                    @keyframes zoomOut {                0% {                    opacity: 0;                    transform: scale(1.5);                }                100% {                    opacity: 1;                    transform: scale(1);                }            }                    @keyframes heartbeat {                0% {                    transform: scale(1);                }                10% {                    transform: scale(1.1);                }                30% {                    transform: scale(1);                }                40% {                    transform: scale(1);                }                50% {                    transform: scale(1.1);                }                60% {                    transform: scale(1);                }                100% {                    transform: scale(1);                }            }                    @keyframes shake {                10%, 90% {                    transform: translate3d(-1px, 0, 0);                  }                  20%, 80% {                    transform: translate3d(2px, 0, 0);                  }                  30%, 50%, 70% {                    transform: translate3d(-4px, 0, 0);                  }                  40%, 60% {                    transform: translate3d(4px, 0, 0);                  }            }        </style><g id="freepik--background-simple--inject-2" class="animable" style="transform-origin: 375.77px 218.912px;"><path d="M518.24,40.12l-2.6,1.58C493.76,55,480.57,79,482.17,104.3A64.87,64.87,0,0,0,483.5,114c4.93,23,22.33,43,44.62,51.34,13.11,4.89,28.2,6.25,38.61,15.51,13.54,12.06,14,32.53,13.4,50.53s-.08,38.48,13.52,50.47c8.51,7.52,20.62,9.91,32,9.3,30.19-1.6,57.19-22.64,70.6-49.39s14.62-58.26,8.72-87.54c-8.27-41-31-80-66-103.47S556.09,21.36,518.24,40.12Z" style="fill: rgb(245, 245, 245); transform-origin: 595.19px 160.119px;" id="elufqf6hyosmm" class="animable"></path><path d="M233.3,397.69l2.59-1.57c21.89-13.28,35.08-37.29,33.48-62.61a67.59,67.59,0,0,0-1.33-9.69c-4.93-23-22.33-43-44.62-51.34-13.11-4.88-28.21-6.24-38.61-15.51-13.54-12.06-14-32.52-13.41-50.52S171.48,168,157.89,156c-8.52-7.51-20.62-9.9-32-9.3-30.19,1.61-57.18,22.65-70.6,49.4s-14.62,58.25-8.71,87.53c8.26,41,31,80,66,103.47S195.44,416.45,233.3,397.69Z" style="fill: rgb(245, 245, 245); transform-origin: 156.35px 277.719px;" id="elv25gqpm0nun" class="animable"></path></g><g id="freepik--Floor--inject-2" class="animable" style="transform-origin: 372.95px 447.11px;"><path d="M707.18,447.11c0,.14-149.66.26-334.22.26s-334.24-.12-334.24-.26,149.62-.26,334.24-.26S707.18,447,707.18,447.11Z" style="fill: rgb(38, 50, 56); transform-origin: 372.95px 447.11px;" id="elandwo2ba95m" class="animable"></path></g><g id="freepik--Table--inject-2" class="animable" style="transform-origin: 330.87px 383.93px;"><path d="M180.68,327.42v76.22H483.12V327.42ZM452.76,387H207V332.77H452.76Z" style="fill: rgb(69, 90, 100); transform-origin: 331.9px 365.53px;" id="ela7pya6n4r4w" class="animable"></path><rect x="168.11" y="320.92" width="325.52" height="11.74" style="fill: rgb(69, 90, 100); transform-origin: 330.87px 326.79px;" id="elwhnri4my199" class="animable"></rect><path d="M493.63,332.71s-72.87.05-162.75.05-162.77,0-162.77-.05,72.86,0,162.77,0S493.63,332.69,493.63,332.71Z" style="fill: rgb(38, 50, 56); transform-origin: 330.87px 332.724px;" id="eld4oyjemd5fl" class="animable"></path><path d="M493.63,321s-72.87,0-162.75,0-162.77,0-162.77,0,72.86-.05,162.77-.05S493.63,320.94,493.63,321Z" style="fill: rgb(38, 50, 56); transform-origin: 330.87px 320.975px;" id="el3wqz9hqqphs" class="animable"></path><rect x="180.68" y="388.06" width="26.27" height="58.88" style="fill: rgb(69, 90, 100); transform-origin: 193.815px 417.5px;" id="elxs8u5vmjguk" class="animable"></rect><rect x="452.65" y="386.99" width="30.48" height="59.86" style="fill: rgb(69, 90, 100); transform-origin: 467.89px 416.92px;" id="elowatf2ymg5r" class="animable"></rect><path d="M452.65,445.86c-.15,0-.27-25.37-.27-56.66s.12-56.66.27-56.66.26,25.36.26,56.66S452.79,445.86,452.65,445.86Z" style="fill: rgb(38, 50, 56); transform-origin: 452.645px 389.2px;" id="el4j2h8ko96fb" class="animable"></path><path d="M207,446.94c-.14,0-.26-25.56-.26-57.09s.12-57.08.26-57.08.27,25.55.27,57.08S207.1,446.94,207,446.94Z" style="fill: rgb(38, 50, 56); transform-origin: 207.005px 389.855px;" id="el24wb4k6y2bv" class="animable"></path></g><g id="freepik--device-2--inject-2" class="animable" style="transform-origin: 327.445px 369.985px;"><rect x="264.26" y="353.05" width="126.37" height="14.27" style="fill: rgb(38, 50, 56); transform-origin: 327.445px 360.185px;" id="ela5aunh3hqqb" class="animable"></rect><rect x="267.5" y="367.33" width="119.9" height="4.28" style="fill: rgb(255, 114, 94); transform-origin: 327.45px 369.47px;" id="el4jeoxt11g4n" class="animable"></rect><rect x="264.26" y="370.63" width="126.37" height="14.27" style="fill: rgb(38, 50, 56); transform-origin: 327.445px 377.765px;" id="elttlwvdk9jn" class="animable"></rect><rect x="268.86" y="384.91" width="116.19" height="2.01" style="fill: rgb(38, 50, 56); transform-origin: 326.955px 385.915px;" id="eluudsbc9nzbr" class="animable"></rect><rect x="267.91" y="373.01" width="4.28" height="2.18" style="fill: rgb(69, 90, 100); transform-origin: 270.05px 374.1px;" id="elprg7mhgmx8p" class="animable"></rect><rect x="273.73" y="373.01" width="4.28" height="2.18" style="fill: rgb(255, 255, 255); transform-origin: 275.87px 374.1px;" id="ell5vhul048v8" class="animable"></rect></g><g id="freepik--device-1--inject-2" class="animable animator-active" style="transform-origin: 326.94px 180.065px;"><rect x="134.97" y="39.2" width="383.94" height="258.73" style="fill: rgb(38, 50, 56); transform-origin: 326.94px 168.565px;" id="elrbrxe1yq9tf" class="animable"></rect><rect x="292.66" y="291.16" width="69.58" height="29.77" style="fill: rgb(38, 50, 56); transform-origin: 327.45px 306.045px;" id="elr03p9kt2138" class="animable"></rect><g id="el466ky955z2l"><rect x="144.66" y="43.38" width="364.39" height="247.78" style="fill: rgb(69, 90, 100); transform-origin: 326.855px 167.27px; transform: rotate(180deg);" class="animable"></rect></g><path d="M282.18,102.62A19.94,19.94,0,0,1,285.74,77,19.08,19.08,0,0,0,283,78.48a19.93,19.93,0,1,0,24,31.7A19.94,19.94,0,0,1,282.18,102.62Z" style="fill: rgb(255, 114, 94); transform-origin: 290.474px 96.055px;" id="elaygtpt2am09" class="animable"></path><g id="elxz8udnou14"><g style="opacity: 0.3; transform-origin: 171.585px 167.765px;" class="animable"><polygon points="198.51 292.15 166.14 226.11 166.14 135.73 177.66 115.39 171.9 109.41 161.79 122.73 166.65 43.55 144.66 43.38 144.66 292.15 198.51 292.15" id="elwuesfi00owm" class="animable" style="transform-origin: 171.585px 167.765px;"></polygon></g></g><g id="elea7rqppl1h"><g style="opacity: 0.3; transform-origin: 475.375px 167.325px;" class="animable"><path d="M446.85,43.33,479.7,100.5,455.51,291.32h19.15S503.9,95.59,503.9,94.1s-6.2-50.72-6.2-50.72l-15.32-.05L488.63,88,463.77,43.38Z" id="elatsc43br31p" class="animable" style="transform-origin: 475.375px 167.325px;"></path></g></g><g id="el7ksqs2a424"><g style="opacity: 0.3; transform-origin: 379.08px 167.295px;" class="animable"><path d="M412,43.38c.14,0-4.33,82.8-4.33,82.8L411.72,145l6.32-10.8,4.47,5.86-9.89,12.36,14.67,138.79H397.63l4.06-71.72L389.14,109.13,330.87,43.38H353L392.81,88.6l3.54-45.22Z" id="el0uq5ev4q38sf" class="animable" style="transform-origin: 379.08px 167.295px;"></path></g></g><g id="el2j7dxz4krzd"><g style="opacity: 0.3; transform-origin: 251.61px 168.24px;" class="animable"><path d="M232.92,44.35c-.13,0,4.34,82.8,4.34,82.8l-4.06,18.77-6.33-10.8L222.41,141l9.89,12.36L217.63,292.13h29.66l-4.06-71.72L255.78,110.1l29.81-65.75H274.45l-29.71,72.71-5-72.71Z" id="elj3i6nt13l6g" class="animable" style="transform-origin: 251.61px 168.24px;"></path></g></g><path d="M253.31,291.32c.47-2.44-3.3-101.39-3.3-101.39l-29.73-84.27L230.57,44l-32-.48-6,65.68L172,86l-4.47,3.32L191,118,224.24,193l-1.33,98.32Z" style="fill: rgb(38, 50, 56); transform-origin: 210.44px 167.42px;" id="el1ciju6ij21p" class="animable"></path><path d="M319.17,121.16c-1.33.53-12.21,2.92-16.19,4s-12.48,12.21-12.48,12.21l-4.24,12.74L278,155.93l-3.19,6.1-1.32,6.54L272.19,178v5l-17.25,37.16,13.8,1.59,23.89-28.4s3.18-3.71,3.71-5.57,9-6.64,9-6.64l2.91,15.66-4.51,27.07-4,17.52-4.25,17.25L285,291.16l42.86.33s7.81-28.6,10.73-28.86,5.51,28.53,5.51,28.53H380s.74-26.41-.05-39.68-5.58-45.65-5.58-45.65l10.89,12.37,1.85,7.8a93.76,93.76,0,0,0-2.92,9.55c-.53,2.92,2.92,7.7,2.92,7.7s1.86-3.72,1.86-6.1V232.1l5,6.11,1.85,5.57-4.24,4s-2.39,3.72-.27,4.25,4.51-2.39,4.51-2.39l3.19-1.86-3.19,6.64s3.72,1.59,5.31-.27,3.72-8.76,3.72-8.76v-8.76L403,224.94,386.58,196l-8-19.91s-8-32.38-8.49-33.18-8-7.7-8-7.7l-8.22-9.82,4.24-14.06s2.66-12.21,1.33-17-6.1-13.27-15.39-12.47-15.4,10.88-15.93,17.78c0,0-3.28,1-3.45,2.92-.5,5.51,3.72,7.21,3.72,7.21l-.8,8.45-4-1.86Z" style="fill: rgb(38, 50, 56); transform-origin: 329.895px 186.649px;" id="eln3m6fgxh4as" class="animable"></path><path d="M338.69,101.11c.28.13,5.6,6.21,5.6,6.21a5.7,5.7,0,0,1-4.45-.54C337.74,105.47,338.69,101.11,338.69,101.11Z" style="fill: rgb(255, 114, 94); transform-origin: 341.383px 104.329px;" id="elg8n8rm6l55h" class="animable"></path><path d="M357.44,104.86l-7.05,2.86c-.24-.26,1.87,2.42,4.25,1.71S357.44,104.86,357.44,104.86Z" style="fill: rgb(255, 114, 94); transform-origin: 353.906px 107.205px;" id="elnd29w713ha9" class="animable"></path><polygon points="451.07 43.34 450.76 247.67 450.76 291.49 409.42 291.16 416.48 103.71 414.62 43.38 451.07 43.34" style="fill: rgb(38, 50, 56); transform-origin: 430.245px 167.415px;" id="eloa1bc1iyq7" class="animable"></polygon><polygon points="446.74 128.67 467.97 100.79 473.49 107.58 446.74 149.44 446.74 128.67" style="fill: rgb(38, 50, 56); transform-origin: 460.115px 125.115px;" id="el2ohp6v8su2g" class="animable"></polygon><path d="M198.43,93l-2.37-4.27C194,85,191.18,79.89,188,74.24s-6.18-10.71-8.34-14.38L177.1,55.5a9.91,9.91,0,0,1-.86-1.64,7.69,7.69,0,0,1,1.1,1.49c.67,1,1.61,2.43,2.75,4.23,1.52,2.42,3.4,5.48,5.43,8.93-.06-.35-.12-.75-.19-1.18-.3-2-.67-4.68-1-7.69s-.65-5.74-.81-7.72a13.94,13.94,0,0,1-.12-3.22,14.2,14.2,0,0,1,.65,3.16c.3,2,.67,4.68,1,7.69s.65,5.74.81,7.72c.07.84.12,1.54.15,2.07.85,1.45,1.73,3,2.62,4.53,3.21,5.65,6,10.85,7.9,14.64.82,1.6,1.48,2.95,2,4" style="fill: rgb(38, 50, 56); transform-origin: 187.385px 70.85px;" id="elhv1lb18y18d" class="animable"></path><path d="M235.22,246.36,200,203.28c0-.64-.07-1.58-.16-2.74-.16-2.28-.43-5.41-.78-8.87s-.69-6.58-1-8.84a26.14,26.14,0,0,0-.55-3.65c-.28,0,.07,5.66.76,12.57,0,.36.07.71.11,1.06a43.5,43.5,0,0,0-3.36-4.86c-2.64-3.35-5.23-5.64-5.37-5.5s2.17,2.66,4.78,6c1.79,2.26,3.24,4.29,4.05,5.32.27,2.66.55,5,.79,6.86.12.9.23,1.66.33,2.25l-33.93-10.47,12.73,4.84a54.46,54.46,0,0,0-7.28,2.39,36.35,36.35,0,0,0-4.41-.67,24.1,24.1,0,0,0-4.95-.25c-.07.28,2.15.72,4.87,1,1.45.16,2.75.24,3.66.25-4.43,1.82-7.75,3.72-7.66,3.89s3.73-1.49,8.29-3.33c3.66-1.49,6.82-2.63,7.88-3.13l15,5.7,34.07,43.05" style="fill: rgb(38, 50, 56); transform-origin: 198.489px 212.77px;" id="el48r2rrmlnaj" class="animable"></path><path d="M231,204l26-24.74,11.74-28.05,1.33-1.3-.24-.25-3.19-3.39-2.17-2.35a9.34,9.34,0,0,1-2-2.8c-1-.41-4.33-2.25-8.23-4.57-4.62-2.75-8.27-5.13-8.16-5.31s3.93,1.91,8.54,4.66c3.63,2.16,6.65,4.08,7.73,4.9v0a11.43,11.43,0,0,0-.64-1.84c-.28-.62-.56-1.25-.86-1.89l-1.79-4c-1.21-2.68-2.35-5.25-3.38-7.59-1.07-.65-3.06-2-5.3-3.7-3.26-2.43-5.8-4.54-5.67-4.7s2.86,1.66,6.12,4.09c1.86,1.39,3.48,2.66,4.51,3.54-.93-2.11-1.76-4-2.46-5.64s-1.3-3.13-1.79-4.28a7,7,0,0,1-.56-1.62,8,8,0,0,1,.83,1.49l2,4.19c1.24,2.64,2.81,6,4.55,9.86,0-.44-.05-1-.07-1.59,0-1.88,0-4.48.08-7.35s.31-5.46.5-7.33a12.07,12.07,0,0,1,.49-3c.21,0,0,4.65-.24,10.37-.17,4.38-.29,8.12-.44,9.63.5,1.09,1,2.2,1.51,3.34.61,1.37,1.21,2.7,1.79,4,.28.64.56,1.28.84,1.9a11,11,0,0,1,.63,1.92,7.77,7.77,0,0,0,1.93,2.92l2.1,2.42,3,3.54.22.26,28.06-27.33h1.53l-8,8a13.88,13.88,0,0,1,1.6.11c2,.34,4.86-.16,8-.45s6-.56,8.11-.69a14.66,14.66,0,0,1,3.39-.07,15.92,15.92,0,0,1-3.33.6c-1.92.25-4.52.55-7.41.84.32.14.75.34,1.23.6,1.16.59,2.73,1.45,4.43,2.44,3.42,2,6.11,3.73,6,3.91s-3-1.27-6.38-3.26c-1.72-1-3.25-1.93-4.34-2.64-.54-.35-1-.65-1.26-.87l-.17-.13-.2,0c-3.14.29-6.07.72-8.18.23a12.9,12.9,0,0,0-1.91-.26l-21,21.16-12.24,28.31-24.74,25.25" style="fill: rgb(38, 50, 56); transform-origin: 272.432px 157.465px;" id="elrzxcues3gbp" class="animable"></path><path d="M425.15,137.89l-26-24.73L387.4,85.1l-1.33-1.3.24-.25c.86-.91,1.93-2,3.18-3.38l2.17-2.36a9.14,9.14,0,0,0,2-2.79c1-.41,4.33-2.25,8.23-4.58,4.62-2.75,8.27-5.12,8.16-5.3s-3.94,1.91-8.55,4.66c-3.62,2.15-6.64,4.08-7.72,4.89h0a12.58,12.58,0,0,1,.63-1.85c.29-.62.57-1.25.86-1.89l1.8-4c1.21-2.69,2.35-5.25,3.38-7.59,1.07-.65,3.06-2,5.3-3.71,3.25-2.43,5.79-4.53,5.67-4.7s-2.87,1.67-6.13,4.1c-1.85,1.38-3.47,2.66-4.5,3.53.93-2.1,1.76-4,2.45-5.64l1.8-4.28a7,7,0,0,0,.56-1.61,7.34,7.34,0,0,0-.83,1.49l-2,4.18c-1.25,2.64-2.82,6-4.55,9.87,0-.45,0-1,.06-1.6.05-1.88,0-4.47-.07-7.34s-.31-5.46-.5-7.33a12.07,12.07,0,0,0-.49-3c-.22,0,0,4.65.24,10.37.17,4.37.29,8.11.43,9.63l-1.5,3.34-1.79,4q-.42,1-.84,1.89a11.3,11.3,0,0,0-.63,1.92,8.14,8.14,0,0,1-1.93,2.93c-.75.85-1.45,1.66-2.1,2.42l-3,3.54-.21.26L357.82,56.29h-1.53l8,8a10.7,10.7,0,0,0-1.61.11c-2,.34-4.85-.16-8-.45s-6-.56-8.11-.7a15.29,15.29,0,0,0-3.38-.07,14.29,14.29,0,0,0,3.33.6c1.91.26,4.52.56,7.4.85-.31.14-.74.34-1.23.59-1.15.6-2.72,1.46-4.43,2.44-3.41,2-6.1,3.74-6,3.92s2.95-1.28,6.38-3.26c1.72-1,3.25-1.93,4.33-2.64.55-.35,1-.65,1.27-.87a.91.91,0,0,1,.16-.13l.21,0c3.14.29,6.07.71,8.18.23a11.69,11.69,0,0,1,1.91-.26l21,21.16,12.24,28.31,24.74,25.24" style="fill: rgb(38, 50, 56); transform-origin: 383.704px 91.34px;" id="elr0500tgl2cs" class="animable"></path><path d="M257.65,43.38c-.1.45-1.33,2.68-1.42,3l1,36.4-.51,2.53.16-.17,3.42-3.71c2.8-3,6.64-7.16,10.83-11.79a50.35,50.35,0,0,1,1.48-6.08c1.11-3.7,2.32-6.59,2.51-6.52s-.68,3.06-1.78,6.73c-.64,2.13-1.21,4-1.62,5.22,4.27-4.74,8.09-9.08,10.86-12.23L285.88,53a9,9,0,0,1,1.3-1.33,8.42,8.42,0,0,1-1.07,1.52c-.73.94-1.8,2.29-3.16,3.93-1.81,2.21-4.13,4.95-6.77,8l1.06-.55c1.77-.91,4.24-2.11,7-3.4s5.25-2.41,7.08-3.19a13.1,13.1,0,0,1,3-1.12,14.11,14.11,0,0,1-2.8,1.6c-1.77.91-4.23,2.11-7,3.4s-5.24,2.41-7.07,3.19c-.77.33-1.42.6-1.92.79-1.11,1.26-2.28,2.57-3.48,3.91-4.36,4.82-8.42,9.08-11.42,12.1-1.5,1.52-2.73,2.73-3.59,3.54l-.46.43-1.19,5.94,31.39-3.27,0,0c.68-.59,1.7-1.42,3-2.42,2.54-2,6.12-4.69,10.19-7.49,3-2.05,5.77-3.87,8.15-5.36,0-.3.85-2,1.68-4s1.42-4.13,1.64-4.09,0,2.06-.94,4.38a13.5,13.5,0,0,1-2,3.51c.74-.46,1.44-.89,2.09-1.27,1.38-.84,2.52-1.49,3.32-1.92a4.57,4.57,0,0,1,1.27-.61,40.12,40.12,0,0,1-4.31,3c-2.7,1.77-6.42,4.24-10.47,7l-3,2.11c1.79-.53,5.32-1.42,9.41-2.35,5.93-1.36,10.77-2.3,10.82-2.09s-4.72,1.46-10.65,2.82c-4.73,1.08-8.76,1.9-10.22,2.08-2.56,1.8-4.83,3.43-6.62,4.72-1.13.82-2.07,1.5-2.79,2l15.93,13.17c1.22-.38,5-1.18,9.58-2,5.56-1,10.09-1.64,10.13-1.44s-4.44,1.18-10,2.18c-4.32.78-8,1.34-9.47,1.46l14.65,12.1-32.9-24.48-30.6,5.87L220,133.56l-1-4.33L251.59,94l4.08-12-.51-35.71.87-3" style="fill: rgb(38, 50, 56); transform-origin: 270.995px 88.425px;" id="elz7c4p7l7kr" class="animable"></path><path d="M218.87,174.84c-.68-1-1.56-2.31-2.67-3.76-.73-1-1.54-2-2.46-3s-2-2.11-3.08-3.26c-2.16-2.29-4.59-4.78-7-7.53A136.78,136.78,0,0,1,192.3,142.4c-1.32-2-2.31-3.67-3-4.82a10.61,10.61,0,0,1-1-1.85,11.74,11.74,0,0,1,1.21,1.69c.75,1.11,1.81,2.72,3.18,4.68a169.7,169.7,0,0,0,11.49,14.67c2.39,2.73,4.8,5.23,7,7.57,1.07,1.17,2.11,2.25,3,3.32s1.71,2.13,2.42,3.1c1,1.32,1.72,2.51,2.32,3.51" style="fill: rgb(38, 50, 56); transform-origin: 203.61px 155.285px;" id="elluh14w3hv6f" class="animable"></path><path d="M184.18,159.34a9,9,0,0,1-3.22-.55c0-.12,1.25.05,3.23,0,.66,0,1.41-.05,2.22-.13.2-.2.34-.3.4-.26s0,.1,0,.23c1.51-.16,3.23-.42,5.05-.78,3-.59,5.69-1.16,7.69-1.4a10.85,10.85,0,0,1,3.25-.15,20,20,0,0,1-3.17.67L192,158.61a40.5,40.5,0,0,1-5.49.72,23.14,23.14,0,0,1-1.26,2.08c-1,1.53-2,2.68-2.19,2.56s.53-1.45,1.56-3c.42-.62.84-1.18,1.19-1.62C185.22,159.38,184.68,159.37,184.18,159.34Z" style="fill: rgb(38, 50, 56); transform-origin: 191.88px 160.11px;" id="eljz3px4yzu7" class="animable"></path><polygon points="259.68 209.89 250.44 231.46 255.58 251.53 263.87 250.38 266.86 244.62 265.25 230.57 272.16 214.69 259.68 209.89" style="fill: rgb(38, 50, 56); transform-origin: 261.3px 230.71px;" id="eldq14fi5054h" class="animable"></polygon><path d="M263,249.88a.91.91,0,0,1-.23,0c-.57-.14-1.19-1.23-4.66-11-.43-1.19-.83-2.32-.9-2.47l-.17-.23.15-.21,3.32-7.75,4,2.1.06.22s.59,2.45,1.11,5.54a10.33,10.33,0,0,1-.57,5.47,10.38,10.38,0,0,1,.95,3.14,5,5,0,0,1-1.53,4.45A2.69,2.69,0,0,1,263,249.88Zm-4.81-13.79c.12.3.34.93.86,2.38,1,2.85,3.33,9.39,4,10.4a2.82,2.82,0,0,0,1.07-.83,3.92,3.92,0,0,0,1-3.24c-.45-2.38-.88-2.9-.9-2.92l-.29-.26.2-.31a9.32,9.32,0,0,0,.6-5.14c-.42-2.52-.89-4.6-1-5.26L261,229.52Z" style="fill: rgb(38, 50, 56); transform-origin: 261.581px 239.054px;" id="elt5j6k2mb17" class="animable"></path><path d="M272.16,228.83s3.69,4.06,2.43,5.73-22.86,18.16-22.86,18.16l-2.91-6.32,16.95-11.25Z" style="fill: rgb(38, 50, 56); transform-origin: 261.836px 240.775px;" id="elopul4ak8wmg" class="animable"></path><path d="M249.1,246.36a684.72,684.72,0,0,0-71.44,42.86,10.87,10.87,0,0,0,8.57,2.9c3.1-.2,11.13-1.48,14-2.71,20.75-8.88,36.72-21.1,51.51-36.69" style="fill: rgb(38, 50, 56); transform-origin: 214.7px 269.269px;" id="elrudc4ew50so" class="animable"></path><path d="M344.31,83.67a20.43,20.43,0,0,0-3.23.74,14.89,14.89,0,0,0-6.33,4.66A28.47,28.47,0,0,0,330.81,96a29.64,29.64,0,0,1-1.33,3.08,3.26,3.26,0,0,1,.2-.89c.17-.55.42-1.35.78-2.33a25.61,25.61,0,0,1,3.89-7.13A14.3,14.3,0,0,1,341,84.06a9.21,9.21,0,0,1,2.44-.44A2.61,2.61,0,0,1,344.31,83.67Z" style="fill: rgb(255, 114, 94); transform-origin: 336.895px 91.3421px;" id="eltkml51qnp09" class="animable"></path><path d="M326.33,105.72c-.06,0-.26-.17-.43-.59a3.15,3.15,0,0,1-.17-1.74,3.27,3.27,0,0,1,.73-1.59c.3-.34.56-.46.6-.42a10.89,10.89,0,0,0-.82,2.1A10.6,10.6,0,0,0,326.33,105.72Z" style="fill: rgb(255, 114, 94); transform-origin: 326.368px 103.546px;" id="elrg7jgjzj1lk" class="animable"></path><path d="M329.16,119.33a15.34,15.34,0,0,1-.17-4,14.87,14.87,0,0,1,.35-3.93,15.34,15.34,0,0,1,.17,4A14.8,14.8,0,0,1,329.16,119.33Z" style="fill: rgb(255, 114, 94); transform-origin: 329.25px 115.365px;" id="elycuh423s8fg" class="animable"></path><path d="M319,122.73a12.32,12.32,0,0,1,2.13-2.8,12.24,12.24,0,0,1,2.52-2.45,11.64,11.64,0,0,1-2.13,2.8A12,12,0,0,1,319,122.73Z" style="fill: rgb(255, 114, 94); transform-origin: 321.325px 120.105px;" id="elgfftryzuvv" class="animable"></path><path d="M302.2,127.41a8.31,8.31,0,0,1,2-.85c1.25-.45,3-1,5-1.51s3.77-.86,5.09-1.06a8.11,8.11,0,0,1,2.15-.21c0,.15-3.2.77-7.11,1.78S302.25,127.55,302.2,127.41Z" style="fill: rgb(255, 114, 94); transform-origin: 309.32px 125.599px;" id="eljab93qq2fn" class="animable"></path><path d="M292.59,137.55a42.83,42.83,0,0,1,3.25-3.94,45.14,45.14,0,0,1,3.28-3.91,17.55,17.55,0,0,1-2.88,4.24A17.78,17.78,0,0,1,292.59,137.55Z" style="fill: rgb(255, 114, 94); transform-origin: 295.855px 133.625px;" id="elnihn7jlo48m" class="animable"></path><path d="M292.36,138.78a33.54,33.54,0,0,1-1.78,5.67,33.59,33.59,0,0,1-2.27,5.5,34.61,34.61,0,0,1,1.78-5.68A34.79,34.79,0,0,1,292.36,138.78Z" style="fill: rgb(255, 114, 94); transform-origin: 290.335px 144.365px;" id="elc8ne0676kap" class="animable"></path><path d="M286.58,151.79c.06.08-1.26.91-3.09,2.59a27.19,27.19,0,0,0-2.95,3.2,31.3,31.3,0,0,0-2.88,4.47,30,30,0,0,0-2,4.94,27.14,27.14,0,0,0-.89,4.26c-.31,2.47-.22,4-.32,4a3.85,3.85,0,0,1-.12-1.08,8.71,8.71,0,0,1,0-1.28c0-.5,0-1.07.09-1.7a25,25,0,0,1,.79-4.35,26.46,26.46,0,0,1,4.94-9.58,25.4,25.4,0,0,1,3.08-3.17,16.57,16.57,0,0,1,1.33-1.06,8.9,8.9,0,0,1,1.06-.73A4.27,4.27,0,0,1,286.58,151.79Z" style="fill: rgb(255, 114, 94); transform-origin: 280.444px 163.52px;" id="el21h2zyhcmhs" class="animable"></path><path d="M273.73,184.93c.13.06-3.43,7.71-8,17.08s-8.29,16.91-8.42,16.84,3.43-7.7,7.95-17.07S273.6,184.87,273.73,184.93Z" style="fill: rgb(255, 114, 94); transform-origin: 265.52px 201.89px;" id="elvzl3nha5nq" class="animable"></path><path d="M252.11,231.41a24.33,24.33,0,0,1,1.88-4.65,24.81,24.81,0,0,1,2.36-4.43,24.33,24.33,0,0,1-1.88,4.65A24.81,24.81,0,0,1,252.11,231.41Z" style="fill: rgb(255, 114, 94); transform-origin: 254.23px 226.87px;" id="elc6zh0upbibe" class="animable"></path><path d="M264,232.16a3.72,3.72,0,0,1,.1,1.28,23.39,23.39,0,0,1-.56,3.44,10.69,10.69,0,0,0-.24,2.33,24.92,24.92,0,0,0,.38,2.7,7.46,7.46,0,0,1-1.72,6.07,6.86,6.86,0,0,1-1.15,1.08l-.27.21-.13-.32c-1.45-3.86-2.71-7.3-3.6-9.78l-1-2.94a5.14,5.14,0,0,1-.31-1.1,4.49,4.49,0,0,1,.49,1c.32.77.71,1.74,1.18,2.88,1,2.45,2.3,5.87,3.76,9.72l-.4-.11a7.78,7.78,0,0,0,1.07-1,7,7,0,0,0,1.63-5.67,24.78,24.78,0,0,1-.33-2.75,11,11,0,0,1,.31-2.42,31.62,31.62,0,0,0,.72-3.37C264,232.62,263.92,232.17,264,232.16Z" style="fill: rgb(255, 114, 94); transform-origin: 259.809px 240.715px;" id="el8ddu1wvlhsb" class="animable"></path><path d="M253.43,245.09a6.3,6.3,0,0,1-.73.46l-2.14,1.26-7.93,4.5L216.36,266c-10.24,5.77-19.44,11.12-26,15.13-3.29,2-5.94,3.64-7.76,4.79l-2.11,1.31a4.6,4.6,0,0,1-.75.42,6.2,6.2,0,0,1,.69-.51l2.06-1.39c1.79-1.2,4.41-2.9,7.68-4.93,6.53-4.09,15.7-9.5,25.94-15.27s19.59-10.86,26.35-14.55l8-4.36,2.19-1.17A4.41,4.41,0,0,1,253.43,245.09Z" style="fill: rgb(255, 114, 94); transform-origin: 216.585px 266.37px;" id="elzayxj3u3i9b" class="animable"></path><path d="M212,279a22,22,0,0,1,.84-4.67,21.73,21.73,0,0,1,1.34-4.55A42.18,42.18,0,0,1,212,279Z" style="fill: rgb(255, 114, 94); transform-origin: 213.09px 274.39px;" id="eljm7iy0z2pza" class="animable"></path><path d="M214.57,277.7a29.16,29.16,0,0,1,1.24-5.34,28.74,28.74,0,0,1,1.75-5.2,56.87,56.87,0,0,1-3,10.54Z" style="fill: rgb(255, 114, 94); transform-origin: 216.06px 272.43px;" id="el837epz5iwac" class="animable"></path><path d="M218.82,272.14a29.75,29.75,0,0,1,.53-3.32,29.81,29.81,0,0,1,.4-3.34,7.07,7.07,0,0,1,.11,3.41A6.87,6.87,0,0,1,218.82,272.14Z" style="fill: rgb(255, 114, 94); transform-origin: 219.419px 268.81px;" id="elqht6mg2vchg" class="animable"></path><path d="M348,129a82,82,0,0,1-8.42-3.54,79.18,79.18,0,0,1-8.2-4,79.35,79.35,0,0,1,8.42,3.54A79.18,79.18,0,0,1,348,129Z" style="fill: rgb(255, 114, 94); transform-origin: 339.69px 125.23px;" id="el55zslkigwbv" class="animable"></path><path d="M365,139.11c-.09.11-.81-.29-1.61-.91s-1.38-1.21-1.29-1.32.81.29,1.61.91S365.13,139,365,139.11Z" style="fill: rgb(255, 114, 94); transform-origin: 363.554px 137.995px;" id="elsi76w11e5b" class="animable"></path><path d="M389.13,216.81a72.81,72.81,0,0,1-6-6.58,75.66,75.66,0,0,1-5.57-6.92,74.61,74.61,0,0,1,6,6.58A80.06,80.06,0,0,1,389.13,216.81Z" style="fill: rgb(255, 114, 94); transform-origin: 383.345px 210.06px;" id="eljvmoj8ihf7" class="animable"></path><path d="M389.16,226.11c-.15,0-.15-1.28-.51-2.76s-.92-2.62-.79-2.7a4.63,4.63,0,0,1,1.3,2.58A4.53,4.53,0,0,1,389.16,226.11Z" style="fill: rgb(255, 114, 94); transform-origin: 388.618px 223.38px;" id="el060r98eewyc9" class="animable"></path><path d="M373.53,82s0,.09,0,.26a1.75,1.75,0,0,1-.35.68A3.11,3.11,0,0,1,370.63,84a18.32,18.32,0,0,1-3.94-1,4.39,4.39,0,0,0-2.22-.07,7.2,7.2,0,0,0-2.14,1.2,5.72,5.72,0,0,1-2.4,1.13,5.34,5.34,0,0,1-2.45-.32,25.77,25.77,0,0,0-3.74-1.4,3.51,3.51,0,0,0-2.51.4,5.23,5.23,0,0,0-.72.65s.08-.39.61-.81a3.49,3.49,0,0,1,2.68-.61,22.14,22.14,0,0,1,3.83,1.32,4.94,4.94,0,0,0,2.23.26,5.26,5.26,0,0,0,2.17-1,7.63,7.63,0,0,1,2.31-1.26,4.88,4.88,0,0,1,2.47.09,20.11,20.11,0,0,0,3.83,1.09,3,3,0,0,0,2.37-.83A4.24,4.24,0,0,0,373.53,82Z" style="fill: rgb(38, 50, 56); transform-origin: 362.02px 83.6443px;" id="elh8q9j45u1nr" class="animable"></path><path d="M360.49,87.94c.06,0-.61.41-1.57,0a5.31,5.31,0,0,1-1.42-1,5.73,5.73,0,0,0-1.59-1.13,5,5,0,0,0-3.46-.14c-.88.29-1.33.68-1.39.62s.34-.55,1.25-1a4.85,4.85,0,0,1,3.81,0,5.37,5.37,0,0,1,1.71,1.25,6.15,6.15,0,0,0,1.25,1A3.11,3.11,0,0,0,360.49,87.94Z" style="fill: rgb(38, 50, 56); transform-origin: 355.774px 86.5112px;" id="elot7s75l1s1m" class="animable"></path><path d="M373.17,122.4a25.66,25.66,0,0,1-2.93-1,15.9,15.9,0,0,0-7.23-1.15,8.48,8.48,0,0,0-3.73,1.37,11.59,11.59,0,0,1-3,1.61,3.57,3.57,0,0,1-2.32-.09,1.31,1.31,0,0,1-.68-.52s.26.17.75.33a3.56,3.56,0,0,0,2.15-.08,12,12,0,0,0,2.86-1.66A8.53,8.53,0,0,1,363,119.7a14.83,14.83,0,0,1,7.42,1.32A14.51,14.51,0,0,1,373.17,122.4Z" style="fill: rgb(38, 50, 56); transform-origin: 363.225px 121.517px;" id="el2uk637m0htg" class="animable"></path><path d="M363.8,117.4a11.08,11.08,0,0,1-1.25.25,13.23,13.23,0,0,1-3.08.62,4.85,4.85,0,0,1-3-1.1c-.63-.53-.86-1-.81-1s.39.32,1,.74a5.41,5.41,0,0,0,2.78.87,28.16,28.16,0,0,0,3-.46C363.31,117.18,363.81,117.34,363.8,117.4Z" style="fill: rgb(38, 50, 56); transform-origin: 359.727px 117.22px;" id="elo233e6yslis" class="animable"></path><path d="M357.84,98a7.82,7.82,0,0,1,1.24-1.72l1.46-1.78.88-1a4.81,4.81,0,0,0,.79-1.11.75.75,0,0,0-.22-1,3.9,3.9,0,0,0-1.16-.49,12.76,12.76,0,0,0-2.2-.46c-1.28-.15-2.09-.09-2.1-.17a5,5,0,0,1,2.13-.2,11.47,11.47,0,0,1,2.3.37,4,4,0,0,1,1.34.54,1.28,1.28,0,0,1,.49.72,1.38,1.38,0,0,1-.09.88,5,5,0,0,1-.9,1.24c-.31.35-.6.69-.9,1l-1.54,1.7A9.66,9.66,0,0,1,357.84,98Z" style="fill: rgb(38, 50, 56); transform-origin: 359.677px 94.0164px;" id="elspx2ljlmhej" class="animable"></path><path d="M327.48,101.79a5,5,0,0,0-.21-2c-.19-.58-.51-1.25-.79-2a3.63,3.63,0,0,1,0-2.81,5.17,5.17,0,0,1,2-1.93c.71-.43,1.36-.78,1.84-1.15a5.39,5.39,0,0,0,1.29-1.47s0,.21-.12.55a3.29,3.29,0,0,1-.94,1.2,15.76,15.76,0,0,1-1.82,1.28,5,5,0,0,0-1.81,1.75,3.24,3.24,0,0,0,0,2.43c.24.77.53,1.48.68,2.1A2.37,2.37,0,0,1,327.48,101.79Z" style="fill: rgb(38, 50, 56); transform-origin: 328.904px 96.11px;" id="elp5brwqp3yuq" class="animable"></path><path d="M357.67,79.4c.05,0,.05.82-.88,1.59a4.33,4.33,0,0,1-1.83.86,9.67,9.67,0,0,1-2.43.12,13.73,13.73,0,0,0-2.33,0,4.81,4.81,0,0,0-1.75.56,4.53,4.53,0,0,0-1.24,1.19c-.06,0,.05-.82,1-1.5a4.8,4.8,0,0,1,1.88-.73,12.07,12.07,0,0,1,2.42-.07,10.81,10.81,0,0,0,2.31-.07,4.47,4.47,0,0,0,1.71-.68C357.45,80.09,357.58,79.36,357.67,79.4Z" style="fill: rgb(38, 50, 56); transform-origin: 352.442px 81.5592px;" id="elfro0zjd9hfg" class="animable"></path><path d="M371.15,155.28a18,18,0,0,0,2.53,5.44,6.16,6.16,0,0,0,5.15,2.62c1.46-.13,2.85-1,4.29-.72s2.57,1.52,3.8,2.42c3.2,2.32,7.55,2,11.48,1.54-2.69,3-7.16,4.06-11.18,3.42-2.14-.35-4.23-1.11-6.41-1.14s-4.17.62-6.27.83-4.46-.13-5.84-1.73" style="fill: rgb(38, 50, 56); transform-origin: 383.55px 162.73px;" id="elrp2ouuvm4ul" class="animable"></path><path d="M373.77,171.07c2.23,4.42,4.71,9.11,9.06,11.48a8.31,8.31,0,0,1,2.9,2c1.48,2.05,0,4.89.16,7.41s2.12,4.59,3.47,6.77,2,5.38.06,7" style="fill: rgb(38, 50, 56); transform-origin: 382.204px 188.4px;" id="elerhjgmrbulb" class="animable"></path><polygon points="415.87 192.94 403.35 161.28 409.42 157.46 415.87 173.81 415.87 192.94" style="fill: rgb(38, 50, 56); transform-origin: 409.61px 175.2px;" id="elr9f2gbbi8h" class="animable"></polygon><polygon points="480.16 291.16 483.05 159.95 468.22 146.16 479.03 142.43 485.34 151.79 501.77 80.55 499.07 43.33 509.04 43.38 509.04 291.16 480.16 291.16" style="fill: rgb(38, 50, 56); transform-origin: 488.63px 167.245px;" id="el38o5w1owupa" class="animable"></polygon><polygon points="306.93 224.38 292.66 230.48 278.01 272.43 292.36 283.35 306.93 224.38" style="fill: rgb(38, 50, 56); transform-origin: 292.47px 253.865px;" id="elh8dcy5j90k" class="animable"></polygon><circle cx="463.51" cy="245.06" r="38.37" style="fill: rgb(235, 235, 235); transform-origin: 463.51px 245.06px;" id="el16py4j2080v" class="animable"></circle><path d="M425.88,237.56l7.36-2.33a12.37,12.37,0,0,0,5.93-4.06c2.08-2.6,4.79-6,4.93-6.29.23-.46,16.74-2.62,21.89-5.7,4.84-2.89,1.15-11.3.52-12.37q-1.49-.12-3-.12A38.37,38.37,0,0,0,425.88,237.56Z" style="fill: rgb(224, 224, 224); transform-origin: 447.164px 222.125px;" id="ellpywepkyuz" class="animable"></path><path d="M492.05,252.78l9.81-9A38.21,38.21,0,0,0,495,223.07l-3.7,6.36-15.6,11.28-30.75-1.58L425.53,250.5a38.34,38.34,0,0,0,15.83,25.88c2.84-1.87,6.16-4.2,6.73-5.15,1-1.71,19.82-10.25,19.82-10.25Z" style="fill: rgb(224, 224, 224); transform-origin: 463.695px 249.725px;" id="el762bcg1dxp" class="animable"></path><g id="elsg29z9g2jih"><g style="opacity: 0.5; transform-origin: 463.415px 225.725px;" class="animable"><path d="M463.82,244.74l-28.57-25.6a41.2,41.2,0,0,1,29.62-12.43c15.88,0,26.71,11.89,26.71,11.89Z" style="fill: rgb(255, 255, 255); transform-origin: 463.415px 225.725px;" id="elvh9o5tmhp7" class="animable"></path></g></g><path d="M463.41,239.57,461.23,243a4,4,0,0,0-.65,2,3.75,3.75,0,0,0,0,.58,2.55,2.55,0,0,0,2.91,2.38,2.5,2.5,0,0,0,2.74-2.61,6.59,6.59,0,0,0-1.2-3.26Z" style="fill: rgb(255, 114, 94); transform-origin: 463.401px 243.778px;" id="el3p09msil50n" class="animable"></path><path d="M501.88,245.06s0-.21-.06-.63-.07-1-.12-1.82c0-.4-.05-.84-.08-1.34s-.16-1-.24-1.6-.19-1.2-.3-1.87-.33-1.35-.5-2.09a36.61,36.61,0,0,0-4.25-10.17,38.08,38.08,0,0,0-9.72-10.83L485,213.48c-.58-.38-1.19-.73-1.79-1.1s-1.2-.78-1.87-1.08l-2-1-1-.48-1.06-.38-2.15-.78c-.73-.24-1.49-.4-2.25-.61a19.37,19.37,0,0,0-2.31-.52,34.5,34.5,0,0,0-4.82-.55c-.82,0-1.65-.11-2.49-.1l-2.52.13c-.42,0-.85,0-1.27.08l-1.28.2c-.84.14-1.71.24-2.56.42a39.78,39.78,0,0,0-5.09,1.49,41,41,0,0,0-5,2.18c-.8.44-1.57.95-2.37,1.42-.39.25-.81.46-1.18.75l-1.12.84a42.58,42.58,0,0,0-4.32,3.67,43,43,0,0,0-3.74,4.42l-.88,1.17-.76,1.26-.77,1.26a8.58,8.58,0,0,0-.71,1.3l-1.29,2.69c-.35.93-.69,1.87-1,2.82a37.87,37.87,0,0,0,0,24c.35.94.69,1.88,1,2.82s.87,1.8,1.3,2.69a9.66,9.66,0,0,0,.71,1.3l.77,1.26.76,1.26.88,1.17a34.4,34.4,0,0,0,8.06,8.09l1.12.84c.37.29.79.5,1.18.75.8.47,1.57,1,2.37,1.42a42.36,42.36,0,0,0,10.06,3.68c.85.17,1.72.27,2.56.41l1.28.2c.42,0,.85,0,1.27.08l2.52.13c.84,0,1.67-.07,2.49-.09a36.07,36.07,0,0,0,4.82-.56,19.37,19.37,0,0,0,2.31-.52c.76-.21,1.52-.36,2.25-.61l2.15-.78,1.06-.38,1-.48,2-.95c.66-.3,1.24-.73,1.86-1.08s1.21-.72,1.79-1.1l1.66-1.23a37.89,37.89,0,0,0,9.71-10.83,36.61,36.61,0,0,0,4.25-10.17c.17-.74.42-1.42.5-2.09s.21-1.29.3-1.87.19-1.11.24-1.6.06-.94.08-1.34c.05-.79.09-1.39.12-1.82s.06-.62.06-.62,0,.21,0,.62,0,1-.06,1.82q0,.62-.06,1.35c0,.49-.14,1-.22,1.61s-.18,1.21-.27,1.88-.32,1.36-.48,2.11a36.42,36.42,0,0,1-4.2,10.27,38.27,38.27,0,0,1-9.74,11l-1.66,1.24c-.59.39-1.2.75-1.81,1.12s-1.21.79-1.88,1.1l-2,1-1,.49-1.07.39-2.17.8c-.74.25-1.51.41-2.27.62a18.06,18.06,0,0,1-2.34.53,35.22,35.22,0,0,1-4.87.58c-.83,0-1.67.11-2.52.1l-2.55-.12c-.43,0-.86,0-1.29-.08l-1.29-.2c-.86-.14-1.73-.24-2.6-.41a43,43,0,0,1-10.19-3.71c-.81-.44-1.6-1-2.41-1.43-.39-.26-.81-.47-1.19-.76l-1.14-.85a42.47,42.47,0,0,1-4.38-3.72,43,43,0,0,1-3.79-4.47l-.89-1.19-.78-1.27-.78-1.28a10.38,10.38,0,0,1-.72-1.31c-.43-.91-.87-1.82-1.31-2.73l-1.05-2.86a38.33,38.33,0,0,1,0-24.38l1.05-2.86,1.31-2.72A9.42,9.42,0,0,1,430,226l.77-1.28.78-1.27.89-1.18a44.17,44.17,0,0,1,3.79-4.48,43.65,43.65,0,0,1,4.38-3.71l1.14-.85c.38-.29.8-.5,1.2-.76.8-.47,1.59-1,2.4-1.43a42.41,42.41,0,0,1,10.19-3.7c.87-.18,1.74-.28,2.6-.42l1.29-.2c.43-.05.86-.05,1.29-.08l2.55-.12c.84,0,1.68.07,2.52.1a35.22,35.22,0,0,1,4.87.58,20.34,20.34,0,0,1,2.34.53c.76.21,1.53.37,2.27.62l2.16.8,1.07.39,1,.49,2,1c.67.31,1.25.74,1.88,1.1s1.22.73,1.8,1.12l1.67,1.24a38.42,38.42,0,0,1,9.74,11,36.42,36.42,0,0,1,4.2,10.27c.16.75.4,1.43.48,2.11s.19,1.3.27,1.88.18,1.12.22,1.61,0,.94.06,1.35c0,.79.05,1.39.06,1.82S501.88,245.06,501.88,245.06Z" style="fill: rgb(38, 50, 56); transform-origin: 463.405px 245.055px;" id="elyzq17yf6iso" class="animable"></path><path d="M450.06,281s6.37-7.37,9.06-9.83,18.35-9.29,18.69-9.29,22.74-6.79,22.74-6.79-3.29,15.37-17.71,23.11A38.15,38.15,0,0,1,450.06,281Z" style="fill: rgb(224, 224, 224); transform-origin: 475.305px 269.272px;" id="elnns9qjemzdo" class="animable"></path><polygon points="175.23 66.14 251.75 66.14 260.21 58.06 176.47 58.06 173.69 62.1 175.23 66.14" style="fill: rgb(255, 114, 94); transform-origin: 216.95px 62.1px;" id="elqlsclzo0uv" class="animable"></polygon><path d="M175.23,66.14a1.47,1.47,0,0,1-.11-.24l-.31-.75-1.2-3v0l0,0,2.75-4,0,0h.06c14.36-.09,45.42-.15,81.37-.15h3l-.47.45-8.46,8.07-.07.07h-.11l-54.61-.1L181,66.22l-4.32,0-1.12,0-.36,0a1.65,1.65,0,0,1,.39,0l1.14,0,4.37,0L197.28,66l54.47-.1-.17.07L260,57.87l.17.45h-2.37c-35.95,0-67-.06-81.37-.15l.09,0-2.81,4v-.07c.48,1.31.85,2.32,1.1,3l.28.77C175.2,66,175.23,66.13,175.23,66.14Z" style="fill: rgb(38, 50, 56); transform-origin: 217.2px 62.23px;" id="eldu2iqhzx0vg" class="animable"></path><g id="eljkwa179hpy"><circle cx="164.78" cy="61.71" r="12.24" style="fill: rgb(38, 50, 56); transform-origin: 164.78px 61.71px; transform: rotate(-45deg);" class="animable"></circle></g><g id="el8op8nenyfoc"><g style="opacity: 0.3; transform-origin: 223.035px 62.1px;" class="animable"><polygon points="223.16 58.06 217.9 66.14 222.49 66.14 228.17 58.06 223.16 58.06" style="fill: rgb(255, 255, 255); transform-origin: 223.035px 62.1px;" id="eld1oxy2iyuec" class="animable"></polygon></g></g><g id="el3vktpz6vbi4"><g style="opacity: 0.3; transform-origin: 216.95px 62.1px;" class="animable"><polygon points="218.05 58.06 212.79 66.14 215.49 66.14 221.11 58.06 218.05 58.06" style="fill: rgb(255, 255, 255); transform-origin: 216.95px 62.1px;" id="elg4or8zpvpjh" class="animable"></polygon></g></g><path d="M172.87,59.88a5.2,5.2,0,0,0-1.31-2.8,4.91,4.91,0,0,0-2.58-1.6,4.1,4.1,0,0,0-3.12.6,4,4,0,0,0-1.28,1.44,4,4,0,0,0-4.31-1.91,4.9,4.9,0,0,0-2.58,1.57,5.24,5.24,0,0,0-1.34,2.8,6.32,6.32,0,0,0,.77,3.86,8.89,8.89,0,0,0,3,2.87c2,1.21,4.62,2.73,4.62,2.73S167,67.78,169,66.59a8.93,8.93,0,0,0,3.07-2.85A6.32,6.32,0,0,0,172.87,59.88Z" style="fill: rgb(224, 224, 224); transform-origin: 164.607px 62.4159px;" id="elosaf968o6vl" class="animable"></path><path d="M164.78,69.47h0s-2.65-1.53-4.62-2.73a8.87,8.87,0,0,1-3.05-2.88,6.29,6.29,0,0,1-.77-3.88,5.19,5.19,0,0,1,1.34-2.8,5,5,0,0,1,2.6-1.59,4.11,4.11,0,0,1,3.14.63,4,4,0,0,1,1.17,1.26,4.08,4.08,0,0,1,1.26-1.41,4.12,4.12,0,0,1,3.15-.6,5.1,5.1,0,0,1,2.59,1.6,5.15,5.15,0,0,1,1.31,2.82h0a6.21,6.21,0,0,1-.79,3.87A8.85,8.85,0,0,1,169,66.61c-2,1.18-4.2,2.83-4.22,2.85Zm-3.69-13.92a3.65,3.65,0,0,0-.81.08,5,5,0,0,0-2.57,1.57A5,5,0,0,0,156.38,60a6.24,6.24,0,0,0,.76,3.84,8.81,8.81,0,0,0,3,2.87c1.89,1.15,4.39,2.6,4.6,2.72.19-.14,2.32-1.71,4.22-2.84a8.71,8.71,0,0,0,3.05-2.85,6.07,6.07,0,0,0,.79-3.83h0a5.12,5.12,0,0,0-1.3-2.79A4.94,4.94,0,0,0,169,55.51a4.06,4.06,0,0,0-3.11.59,4.17,4.17,0,0,0-1.27,1.43l0,0,0,0a4.14,4.14,0,0,0-1.18-1.28A4,4,0,0,0,161.09,55.55Z" style="fill: rgb(38, 50, 56); transform-origin: 164.619px 62.4241px;" id="elj9bii41jfi" class="animable"></path><path d="M509,291.16c0-1.71-.08-96.92-.21-247.78l.21.21-364.36,0h0l.26-.26c0,88.39,0,172.39,0,247.78l-.23-.24,364.38.24-364.38.24h-.24v-.24c0-75.39,0-159.39,0-247.78v-.26h.29L509,43.17h.21v.21C509.12,194.24,509,289.45,509,291.16Z" style="fill: rgb(38, 50, 56); transform-origin: 326.82px 167.21px;" id="elc2yuov4vjzk" class="animable"></path></g><g id="freepik--speech-bubble--inject-2" class="animable" style="transform-origin: 677.18px 198.035px;"><polygon points="680.44 174.48 694.47 160.83 698.69 181.67 715.68 182.64 707 198.34 719.25 212.58 700.6 216.82 694.97 235.2 677.29 224.77 659.01 232.4 658.13 212.08 635.33 212.12 655.02 196.49 645.87 180.02 664.22 182.06 664.07 162.73 680.44 174.48" style="fill: rgb(255, 255, 255); transform-origin: 677.29px 198.015px;" id="el9vdis7ulgh7" class="animable"></polygon><path d="M680.44,174.48s-.37-.24-1.08-.74l-3.18-2.24L664,162.83l.2-.1c.06,5.37.12,11.9.2,19.33v.19l-.19,0-18.36-2,.2-.3,9.18,16.46.09.17-.15.11-19.68,15.65-.15-.44,22.8,0h.24v.24c.29,6.48.58,13.34.89,20.32l-.36-.23,13-5.43,5.28-2.2.12-.05.11.07L695.1,235l-.38.14q2.89-9.41,5.64-18.37l0-.14.14,0,18.65-4.23-.13.38-12.24-14.24-.1-.12.08-.13,8.69-15.7.17.3-17-1h-.14l0-.13q-2.46-12.32-4.17-20.86l.2.06L684.05,171l-2.7,2.59c-.6.58-.91.85-.91.85s.3-.32.9-.92,1.51-1.48,2.68-2.64l10.36-10.18.16-.16.05.22q1.74,8.53,4.27,20.84l-.16-.14,17,.94H716l-.16.28-8.66,15.72,0-.25,12.26,14.22.26.3-.39.09-18.64,4.26.18-.17c-1.83,6-3.71,12.1-5.63,18.37l-.09.31-.28-.16q-8.67-5.1-17.68-10.43l.23,0-5.28,2.2-13,5.43-.34.14,0-.37c-.3-7-.6-13.83-.87-20.32l.25.25-22.8,0h-.7l.55-.43c6.93-5.49,13.56-10.75,19.71-15.61l-.06.28-9.14-16.48-.19-.34.39,0,18.35,2.07-.19.17c0-7.43-.08-14-.11-19.33v-.25l.2.14,12.06,8.75,3.16,2.3Z" style="fill: rgb(38, 50, 56); transform-origin: 677.18px 198.035px;" id="eljd21ttuwyli" class="animable"></path><path d="M686.19,184.09l-1,17.39a2.82,2.82,0,0,1-2.64,2.65h0a2.81,2.81,0,0,1-3-2.49l-2-17.48a2.21,2.21,0,0,1,2.22-2.46l4.25,0A2.22,2.22,0,0,1,686.19,184.09Z" style="fill: rgb(255, 114, 94); transform-origin: 681.866px 192.919px;" id="el81t41f9k9nm" class="animable"></path><path d="M677.94,213.93a4.24,4.24,0,1,0,2.67-5.38A4.24,4.24,0,0,0,677.94,213.93Z" style="fill: rgb(255, 114, 94); transform-origin: 681.956px 212.571px;" id="elvgn9jusd91" class="animable"></path></g><g id="freepik--Character--inject-2" class="animable" style="transform-origin: 500.54px 337.066px;"><path d="M421.71,316.7a2.63,2.63,0,0,0-2.22-.34,6.51,6.51,0,0,0-2.05,1.08,26.33,26.33,0,0,0-2.41,1.95,2.92,2.92,0,0,0-.94,1.29,1.06,1.06,0,0,0,.62,1.31,1.54,1.54,0,0,0,1.12-.31,38.14,38.14,0,0,0,5.94-4.39" style="fill: rgb(38, 50, 56); transform-origin: 417.905px 319.126px;" id="elb0u4767z7qm" class="animable"></path><path d="M442.13,311.93a2.64,2.64,0,0,0-1.88-1.24,6.44,6.44,0,0,0-2.31.14,24,24,0,0,0-3,.77,2.87,2.87,0,0,0-1.39.78,1.06,1.06,0,0,0,0,1.45,1.51,1.51,0,0,0,1.15.18,37.12,37.12,0,0,0,7.22-1.53" style="fill: rgb(38, 50, 56); transform-origin: 437.697px 312.349px;" id="elsdnn94p2j2a" class="animable"></path><polygon points="484.86 323.95 511.41 327.72 546.8 312.78 554.18 334.41 513.22 350.3 471.61 336.66 484.86 323.95" style="fill: rgb(255, 191, 157); transform-origin: 512.895px 331.54px;" id="el2hb4nv626jz" class="animable"></polygon><path d="M537.79,321.49l-3-6.05s40.51-17.42,39.93-17.23-34.08,25.56-34.08,25.56Z" style="fill: rgb(255, 114, 94); transform-origin: 554.758px 310.989px;" id="elvdqfdblhxv" class="animable"></path><path d="M484.86,324s-8.05-13.48-9.93-14.7-18.16-5.69-19.48-5.16-20.18,5.41-17.79,7.5,15.53-1.49,15.53-1.49l1.87.74s-11.38,2.8-13.69,4.41c-2.13,1.48-1.14,4.15,1,3.76s11.95-3.18,12.58-2.81-10.67,3.61-11.85,4.44c-1.58,1.13-1.5,4.1.59,3.78,1.23-.19,11.84-3.89,11.84-3.89s-8.32,4-9.05,4.85c-1.2,1.34,0,3.12,1.81,2.56,1.26-.39,7.09-3.8,8.77-4.31,0,0,1.64.29,3.36,3.41s17.47,16.5,17.47,16.5Z" style="fill: rgb(255, 191, 157); transform-origin: 461.155px 323.843px;" id="elaa4x5876d1" class="animable"></path><path d="M475.35,323.26a6.3,6.3,0,0,0-2.06-2.57C457.9,309.2,437,308.82,419.83,317.1a14.32,14.32,0,0,0-7,8c-1.08,3.29.18,7.33,3.55,6.52L438,341.34a8.49,8.49,0,0,0,1.55.32c5.92.83,10.94-3.78,11.37-9.75.28-3.69,5.11-4.16,9.76-3.58,2.23.28,7.76,1.06,10,.91C473.6,329.05,476.81,326.78,475.35,323.26Z" style="fill: rgb(255, 114, 94); transform-origin: 444.084px 326.582px;" id="elbf8vopn338v" class="animable"></path><ellipse cx="458.61" cy="321.42" rx="4.28" ry="1.41" style="fill: rgb(38, 50, 56); transform-origin: 458.61px 321.42px;" id="elxhqpuyazh5d" class="animable"></ellipse><ellipse cx="458.61" cy="318.25" rx="4.28" ry="1.65" style="fill: rgb(38, 50, 56); transform-origin: 458.61px 318.25px;" id="elj6la3lll0nn" class="animable"></ellipse><polygon points="460.56 321.59 457.24 321.5 457.24 318.36 460.56 318.45 460.56 321.59" style="fill: rgb(38, 50, 56); transform-origin: 458.9px 319.975px;" id="elkiblmbivwld" class="animable"></polygon><path d="M462.83,318.51c0,.05-.31.44-1,.82a7.32,7.32,0,0,1-3.08.8,6.64,6.64,0,0,1-3.13-.59c-.75-.37-1.1-.76-1.06-.8s.47.2,1.2.46a8.08,8.08,0,0,0,3,.41,9.47,9.47,0,0,0,2.95-.61C462.36,318.72,462.77,318.44,462.83,318.51Z" style="fill: rgb(69, 90, 100); transform-origin: 458.693px 319.32px;" id="elwxdrp40l" class="animable"></path><path d="M457.21,321.3c-.14,0-.26-.31-.26-.71s.12-.7.26-.7.26.31.26.7S457.36,321.3,457.21,321.3Z" style="fill: rgb(69, 90, 100); transform-origin: 457.21px 320.595px;" id="elz6fco84petf" class="animable"></path><path d="M460.44,321.18c-.15,0-.26-.31-.26-.7s.11-.71.26-.71.26.32.26.71S460.58,321.18,460.44,321.18Z" style="fill: rgb(69, 90, 100); transform-origin: 460.44px 320.475px;" id="eljc6iy4hoeej" class="animable"></path><path d="M442,327.33c0,.78-1.91,1.42-4.28,1.42s-4.28-.64-4.28-1.42,1.91-1.41,4.28-1.41S442,326.55,442,327.33Z" style="fill: rgb(38, 50, 56); transform-origin: 437.72px 327.335px;" id="el9p0m7m4ipn" class="animable"></path><path d="M442,324.16c0,.91-1.91,1.65-4.28,1.65s-4.28-.74-4.28-1.65,1.91-1.65,4.28-1.65S442,323.25,442,324.16Z" style="fill: rgb(38, 50, 56); transform-origin: 437.72px 324.16px;" id="eltfiicdswphj" class="animable"></path><polygon points="439.65 327.51 436.33 327.42 436.33 324.27 439.65 324.36 439.65 327.51" style="fill: rgb(38, 50, 56); transform-origin: 437.99px 325.89px;" id="elny67ifh4v0g" class="animable"></polygon><path d="M441.91,324.42c0,.05-.3.44-1,.83a7.48,7.48,0,0,1-3.08.79,6.72,6.72,0,0,1-3.14-.59c-.74-.36-1.09-.75-1.05-.8s.46.21,1.19.46a8.14,8.14,0,0,0,3,.41,9.19,9.19,0,0,0,3-.61A7.71,7.71,0,0,1,441.91,324.42Z" style="fill: rgb(69, 90, 100); transform-origin: 437.773px 325.235px;" id="elv5ph5u3vygo" class="animable"></path><path d="M436.3,327.22c-.14,0-.26-.32-.26-.71s.12-.71.26-.71.26.32.26.71S436.45,327.22,436.3,327.22Z" style="fill: rgb(69, 90, 100); transform-origin: 436.3px 326.51px;" id="el71us4dtj0m7" class="animable"></path><path d="M439.52,327.1c-.14,0-.26-.32-.26-.71s.12-.71.26-.71.26.32.26.71S439.67,327.1,439.52,327.1Z" style="fill: rgb(69, 90, 100); transform-origin: 439.52px 326.39px;" id="el1mb0elor289" class="animable"></path><path d="M480.5,324.51c-1.08,1.19-3,1.08-4.45.37s-2.58-1.88-4-2.69c-4.12-2.41-9.68-1.29-13.68-3.91-.56-.36-1.13-1-.89-1.61s1-.7,1.58-.74l15.8-.93" style="fill: rgb(255, 191, 157); transform-origin: 468.962px 320.205px;" id="elgoa7b9wirbg" class="animable"></path><path d="M474.9,315a5.92,5.92,0,0,0-1.72-.08c-1.1,0-2.7.06-4.67.14l-6.91.31-2,.1a3.15,3.15,0,0,0-2.28.68,1.34,1.34,0,0,0-.13,1.49,2.69,2.69,0,0,0,.88.95,10.19,10.19,0,0,0,2.08,1.06c3,1.07,5.88,1.07,8.36,1.65a11.91,11.91,0,0,1,3.36,1.2c1,.55,1.8,1.24,2.63,1.8a5.57,5.57,0,0,0,4.56,1.2c1.15-.32,1.48-1,1.44-1a4.57,4.57,0,0,1-1.51.65,5.39,5.39,0,0,1-4.12-1.38c-.78-.57-1.59-1.3-2.62-1.93a12.47,12.47,0,0,0-3.55-1.36c-2.58-.64-5.51-.68-8.23-1.69a9.52,9.52,0,0,1-1.89-.94c-.54-.37-.84-.91-.58-1.14s1-.35,1.65-.39l2-.13,6.9-.51c2-.15,3.55-.3,4.65-.42A6.76,6.76,0,0,0,474.9,315Z" style="fill: rgb(255, 154, 108); transform-origin: 468.763px 320.24px;" id="elvg0h0tgpz1" class="animable"></path><path d="M437.7,311.64a9.16,9.16,0,0,0,3.57.67,20.57,20.57,0,0,0,4-.17c1.45-.28,3-.64,4.69-1l3.53-.82h-.22c4.86,1.29,8.41,2.1,8.47,1.9s-3.4-1.33-8.25-2.73l-.09,0-.12,0-3.51.77-4.63,1.08a25.75,25.75,0,0,1-3.82.35C439.09,311.7,437.72,311.5,437.7,311.64Z" style="fill: rgb(255, 154, 108); transform-origin: 449.72px 310.916px;" id="elp6qs8f203c8" class="animable"></path><path d="M587.74,289.36a1.16,1.16,0,0,1-.25.15l-.77.4-3,1.51-10.89,5.44a42.11,42.11,0,0,0-7.23,4.21l-7.9,5.54-18.14,12.65-11,7.63.05-.36,18.59,24.94c2.28,3.09,4.11,5.57,5.39,7.32.61.83,1.08,1.49,1.43,2l.36.52c.08.12.12.18.11.18s-.05,0-.15-.16l-.39-.49-1.5-1.92L547,351.66,528.3,326.83l-.16-.21.22-.15,10.95-7.63,18.16-12.63,7.94-5.49a41.56,41.56,0,0,1,7.31-4.19l11-5.3,3-1.41.78-.36A1.27,1.27,0,0,1,587.74,289.36Z" style="fill: rgb(38, 50, 56); transform-origin: 557.94px 325.425px;" id="eljmb97u7uylf" class="animable"></path><g id="elcn2woi4dho8"><g style="opacity: 0.3; transform-origin: 437.461px 317.178px;" class="animable"><path d="M427.38,316.45a1,1,0,0,0-.16,1.87c2.27,1.14,5.67,2.74,7.1,2.86,2.23.21,13.65-2.57,13.95-3.42s-7.55-4.77-9.3-4.59C437.71,313.3,431,315.33,427.38,316.45Z" id="ely1j37u6raa" class="animable" style="transform-origin: 437.461px 317.178px;"></path></g></g><path d="M598.77,194.73a7,7,0,0,0-7.29-3.39,9.51,9.51,0,0,0-11.69.46,8.45,8.45,0,0,0-12.6,7.17,7.07,7.07,0,0,0-5.93,12,6.78,6.78,0,0,0,3.13,13.13l33.28-21.44A7,7,0,0,0,598.77,194.73Z" style="fill: rgb(38, 50, 56); transform-origin: 578.104px 206.859px;" id="eln8gzi817l" class="animable"></path><path d="M563.42,225.1A28.8,28.8,0,0,1,591.58,198l1.49,0c16.09.61,24.57,14.62,23.51,30.69v60.63l1.66,6-18.46,19.81-24-10.36,4.48-9.61-2.16-15.73s-15.51-2.08-16-17.53C561.84,254.44,562.59,239,563.42,225.1Z" style="fill: rgb(255, 191, 157); transform-origin: 590.144px 256.565px;" id="elc7nyvg2lubt" class="animable"></path><path d="M578.1,279.43a37.22,37.22,0,0,0,20-6.36s-3.74,13.29-19.19,12.22Z" style="fill: rgb(255, 154, 108); transform-origin: 588.1px 279.211px;" id="elnq0w0ugpf3" class="animable"></path><path d="M568.23,238.17a2.22,2.22,0,0,0,2.18,2.19,2.11,2.11,0,0,0,2.23-2,2.21,2.21,0,0,0-2.17-2.18A2.11,2.11,0,0,0,568.23,238.17Z" style="fill: rgb(38, 50, 56); transform-origin: 570.435px 238.27px;" id="ely12749tz8ub" class="animable"></path><path d="M566.9,232.6c.28.28,1.93-1,4.3-1s4.14,1.11,4.39.82c.12-.13-.16-.65-.93-1.18a6,6,0,0,0-3.53-1,5.81,5.81,0,0,0-3.41,1.18C567,231.94,566.76,232.47,566.9,232.6Z" style="fill: rgb(38, 50, 56); transform-origin: 571.239px 231.438px;" id="el6jag81u0jhj" class="animable"></path><path d="M589,238.84a2.2,2.2,0,0,0,2.17,2.18,2.11,2.11,0,0,0,2.23-2,2.2,2.2,0,0,0-2.17-2.19A2.1,2.1,0,0,0,589,238.84Z" style="fill: rgb(38, 50, 56); transform-origin: 591.2px 238.925px;" id="elx0eus0dz6ob" class="animable"></path><path d="M590.25,232.56c.28.28,1.93-1,4.3-1s4.14,1.11,4.39.81c.12-.13-.16-.64-.94-1.18a6.11,6.11,0,0,0-3.52-1,5.81,5.81,0,0,0-3.41,1.18C590.35,231.91,590.11,232.43,590.25,232.56Z" style="fill: rgb(38, 50, 56); transform-origin: 594.589px 231.394px;" id="eldr0silln8w6" class="animable"></path><path d="M582,250.35c0-.14-1.47-.36-3.87-.62-.61,0-1.18-.16-1.29-.57a3,3,0,0,1,.36-1.81l1.7-4.65c2.36-6.63,4.05-12.07,3.78-12.16s-2.39,5.2-4.75,11.83q-.84,2.44-1.62,4.68a3.57,3.57,0,0,0-.27,2.38,1.56,1.56,0,0,0,1,.87,4,4,0,0,0,1,.12A16,16,0,0,0,582,250.35Z" style="fill: rgb(38, 50, 56); transform-origin: 579.328px 240.525px;" id="el93ssb9vfeem" class="animable"></path><path d="M600,227.56c-.17-.66-2.3-.5-4.76-1s-4.41-1.4-4.78-.84c-.16.26.15.89.91,1.57a7.54,7.54,0,0,0,3.48,1.65,7.27,7.27,0,0,0,3.78-.24C599.56,228.35,600.05,227.87,600,227.56Z" style="fill: rgb(38, 50, 56); transform-origin: 595.211px 227.314px;" id="elc16a9w07u7v" class="animable"></path><path d="M575.7,227.07c-.51-.54-2.46,0-4.82.08s-4.36-.34-4.81.23c-.2.27.12.81,1,1.32a8.14,8.14,0,0,0,7.76-.25C575.65,227.89,575.92,227.33,575.7,227.07Z" style="fill: rgb(38, 50, 56); transform-origin: 570.893px 228.198px;" id="elxivginds7nk" class="animable"></path><path d="M564.76,218s3.88-9.76,8.5-12.12c5.59-2.84,8.15,3.31,13.5,1.69s10.69-4.35,16.28-.3c6.12,4.43,3.36,7.69,3.87,14.53,2.08,27.77,7.32,35.52,8.49,22.4.13-1.44,4.09-2.66,4.55-8.73.61-7.87.71-17.42-1.15-23-1.58-4.67-4.32-7.86-9.2-11.35-7.7-5.49-18.13-5.4-25.19-4.54S563.87,205.89,564.76,218Z" style="fill: rgb(38, 50, 56); transform-origin: 592.532px 223.278px;" id="elecqpwrj1mwq" class="animable"></path><path d="M614.41,243.79a4.18,4.18,0,0,1,4.44-4.13c2.89.21,6.13,1.78,6.06,7.74-.12,10.57-10.71,8.27-10.72,8S614.32,248.21,614.41,243.79Z" style="fill: rgb(255, 191, 157); transform-origin: 619.55px 247.723px;" id="elybpbcy3elh" class="animable"></path><path d="M616.54,251.42s.18.13.49.27a1.83,1.83,0,0,0,1.37.05c1.13-.4,2.09-2.16,2.16-4.07a5.93,5.93,0,0,0-.49-2.64,2.11,2.11,0,0,0-1.36-1.43,1,1,0,0,0-1.1.49c-.14.3-.08.51-.13.53s-.23-.18-.14-.62a1.19,1.19,0,0,1,.42-.66,1.4,1.4,0,0,1,1-.25,2.56,2.56,0,0,1,1.9,1.66,6.27,6.27,0,0,1,.61,2.95c-.1,2.13-1.21,4.11-2.74,4.53a2,2,0,0,1-1.68-.29C616.55,251.67,616.5,251.43,616.54,251.42Z" style="fill: rgb(255, 154, 108); transform-origin: 618.901px 247.69px;" id="elh0ffdyjv90g" class="animable"></path><path d="M613.78,223.33a10.09,10.09,0,0,1-4.43,2.16c-1.65.19-3.56-.72-3.87-2.35-.14-.73,0-1.59-.47-2.15s-1.65-.43-2.54-.32c-3.06.39-6.72-2.93-7.56-5.9a2.76,2.76,0,0,1-3.67.84,10,10,0,0,1-2.59-2.21c-.95-1-2.27-2-3.67-1.74a9.84,9.84,0,0,1-2.28.55c-1.39-.09-2.1-1.7-2.34-3.07s-.44-3-1.63-3.7-2.5-.25-3.77,0-2.93,0-3.29-1.29a2.54,2.54,0,0,1,.44-1.93,6.85,6.85,0,0,1,8-2.76,9.27,9.27,0,0,1,17-2.14,9.41,9.41,0,0,1,15.11,3.12,6.83,6.83,0,0,1,7.9,9.77c1.92,1,3.58,2.9,3.67,5.08s-2,4.41-4.13,3.88a3.78,3.78,0,0,1-6.45,3.9" style="fill: rgb(38, 50, 56); transform-origin: 597.712px 209.074px;" id="elphef1a2377i" class="animable"></path><path d="M579.41,202.56s0,.06,0,.19a4,4,0,0,0,.07.56,6.65,6.65,0,0,0,.81,2,7.48,7.48,0,0,0,2.4,2.45,7,7,0,0,0,4.35,1.15l-.19-.23a3.86,3.86,0,0,0,.28,2.91,10.59,10.59,0,0,0,1.86,2.56,7.51,7.51,0,0,0,1.2,1.19,3.76,3.76,0,0,0,1.69.59,3.89,3.89,0,0,0,3.38-1.29l-.4-.11a8,8,0,0,0,3.47,5.42,5.79,5.79,0,0,0,3.49,1.06,10.28,10.28,0,0,0,3.41-.82l-.29-.12a8.26,8.26,0,0,0,2.57,3.21,4.43,4.43,0,0,0,3.7.93,5.84,5.84,0,0,0,4.39-4.65l-.24.12a5.42,5.42,0,0,0,3.64.46,6,6,0,0,0,2.51-1.18,5,5,0,0,0,1.15-1.32,2.67,2.67,0,0,0,.26-.55,6.17,6.17,0,0,1-1.52,1.73,5.86,5.86,0,0,1-2.45,1.07,5.28,5.28,0,0,1-3.44-.49l-.2-.11,0,.22a5.49,5.49,0,0,1-4.16,4.31,4,4,0,0,1-3.36-.88,7.93,7.93,0,0,1-2.41-3.05l-.09-.19-.19.07a9.92,9.92,0,0,1-3.26.79,5.36,5.36,0,0,1-3.22-1,7.49,7.49,0,0,1-3.29-5.1l-.07-.5-.32.4a3.43,3.43,0,0,1-3,1.13,3.22,3.22,0,0,1-1.49-.5,8,8,0,0,1-1.14-1.12,10.89,10.89,0,0,1-1.82-2.45,3.5,3.5,0,0,1-.28-2.63l.08-.25-.26,0a6.83,6.83,0,0,1-4.17-1,7.66,7.66,0,0,1-2.38-2.32A8.2,8.2,0,0,1,579.41,202.56Z" style="fill: rgb(69, 90, 100); transform-origin: 601.165px 213.429px;" id="elyp8nwa3ikh" class="animable"></path><path d="M587.88,255.61a4.42,4.42,0,0,0-1.29-1.26,4.07,4.07,0,0,0-3.28-.22,6.43,6.43,0,0,0-2.55,1.67c-1.24,1.29-.84,2.61-.37,5.6,3-.59,6,0,8.76-1.18A7.2,7.2,0,0,0,587.88,255.61Z" style="fill: rgb(255, 154, 108); transform-origin: 584.551px 257.643px;" id="elc1iw42ctpjf" class="animable"></path><path d="M580.74,255.45l0,0h0Z" style="fill: rgb(255, 154, 108); transform-origin: 580.74px 255.45px;" id="elsffyvmwxpdn" class="animable"></path><path d="M580.39,261.4a12.07,12.07,0,0,1,3.38-.61c1.05-.11,2.29-.21,3.66-.42l.51-.09a2.51,2.51,0,0,0,.48-.1.66.66,0,0,0,.49-.56,2.79,2.79,0,0,0-.09-1c-.09-.38-.18-.76-.29-1.14a5.69,5.69,0,0,0-.94-2,2.81,2.81,0,0,0-1.64-1,5.35,5.35,0,0,0-1.87,0,6.79,6.79,0,0,0-1.61.38,3.93,3.93,0,0,0-1.89,1.4c-.33.46-.45.78-.5.76a1.71,1.71,0,0,1,.28-.9,4,4,0,0,1,1.94-1.68,6.58,6.58,0,0,1,1.71-.49,5.51,5.51,0,0,1,2.07,0,3.43,3.43,0,0,1,2,1.21,6.32,6.32,0,0,1,1.06,2.22c.11.4.2.79.29,1.17a3.17,3.17,0,0,1,.09,1.28,1.31,1.31,0,0,1-.32.66,1.41,1.41,0,0,1-.59.36,3,3,0,0,1-.58.12l-.53.08c-1.4.18-2.66.24-3.71.29C581.7,261.33,580.41,261.5,580.39,261.4Z" style="fill: rgb(38, 50, 56); transform-origin: 584.814px 257.642px;" id="el2xy6ktikwml" class="animable"></path><path d="M597.67,243.64c-.09.17-1.47-.54-3.32-.62s-3.3.46-3.38.28.29-.32.9-.56a6.43,6.43,0,0,1,5,.26C597.42,243.29,597.71,243.57,597.67,243.64Z" style="fill: rgb(255, 154, 108); transform-origin: 594.316px 243.01px;" id="el4nn7un8irbf" class="animable"></path><path d="M573.94,243.68c-.08.17-1.4-.39-3.11-.38s-3,.51-3.11.34.25-.32.81-.56a6.21,6.21,0,0,1,2.31-.43,5.94,5.94,0,0,1,2.3.47C573.69,243.36,574,243.61,573.94,243.68Z" style="fill: rgb(255, 154, 108); transform-origin: 570.824px 243.181px;" id="eljtfdzce8bt" class="animable"></path><path d="M580.34,229.41c0-.08.21-.28.5-.66a3.35,3.35,0,0,0,.71-1.66,3.47,3.47,0,0,0-.32-1.77c-.21-.43-.4-.69-.34-.76s.38.08.72.52a2.91,2.91,0,0,1-.44,4C580.73,229.42,580.38,229.48,580.34,229.41Z" style="fill: rgb(255, 154, 108); transform-origin: 581.275px 226.99px;" id="el5df0fka5qt7" class="animable"></path><path d="M585.24,229.55c-.07,0-.34-.14-.64-.56a4.39,4.39,0,0,1-.7-1.9,4.29,4.29,0,0,1,.22-2c.19-.49.4-.73.48-.7s-.25,1.22-.06,2.64S585.38,229.43,585.24,229.55Z" style="fill: rgb(255, 154, 108); transform-origin: 584.562px 226.969px;" id="el6mm2w4rpagk" class="animable"></path><path d="M608.77,202.44a9,9,0,0,1,.24,2.2,2.89,2.89,0,0,1-.4,1.73,2.24,2.24,0,0,1-1.55.68,8,8,0,0,1-2.13-.18.38.38,0,0,0-.15.75c1.41.26,3.37.54,4.41-.75a3.41,3.41,0,0,0,.59-2.09,10,10,0,0,0-.28-2.6c-.12-.48-.85-.22-.73.26Z" style="fill: rgb(69, 90, 100); transform-origin: 607.128px 204.883px;" id="eloeqjlqm094" class="animable"></path><path d="M611.25,202.06a9.13,9.13,0,0,0,.09,2.61,3.38,3.38,0,0,0,.87,2c1.2,1.13,3.11.58,4.47.13a.39.39,0,0,0-.25-.73,7.93,7.93,0,0,1-2.09.48,2.21,2.21,0,0,1-1.63-.46,2.88,2.88,0,0,1-.64-1.65,8.68,8.68,0,0,1-.06-2.22c0-.49-.71-.64-.76-.15Z" style="fill: rgb(69, 90, 100); transform-origin: 614.043px 204.553px;" id="elnyr8jpuvjqr" class="animable"></path><path d="M613,214a9,9,0,0,1-.24-2.2,2.84,2.84,0,0,1,.4-1.72,2.21,2.21,0,0,1,1.55-.69,7.62,7.62,0,0,1,2.13.19.39.39,0,0,0,.15-.76c-1.41-.26-3.37-.54-4.41.75a3.43,3.43,0,0,0-.59,2.09,9.47,9.47,0,0,0,.28,2.6c.12.48.85.22.73-.26Z" style="fill: rgb(69, 90, 100); transform-origin: 614.623px 211.557px;" id="elcirfys9rki" class="animable"></path><path d="M610.51,214.38a9.13,9.13,0,0,0-.09-2.61,3.41,3.41,0,0,0-.87-2c-1.21-1.13-3.11-.58-4.48-.13a.39.39,0,0,0,.26.73,7.93,7.93,0,0,1,2.09-.48,2.18,2.18,0,0,1,1.62.46,2.75,2.75,0,0,1,.64,1.65,8.69,8.69,0,0,1,.07,2.22c0,.49.71.65.76.15Z" style="fill: rgb(69, 90, 100); transform-origin: 607.708px 211.889px;" id="el69tqo67h6x4" class="animable"></path><path d="M586.91,266.81c-.06.08-.45-.12-1.09-.35a8.14,8.14,0,0,0-2.6-.46,8,8,0,0,0-2.6.42c-.64.22-1,.42-1.09.34s.26-.41.91-.76a6.07,6.07,0,0,1,2.79-.65,6,6,0,0,1,2.77.7C586.65,266.4,587,266.75,586.91,266.81Z" style="fill: rgb(255, 154, 108); transform-origin: 583.22px 266.089px;" id="el70nkysotf4e" class="animable"></path><path d="M433.67,426.64l-19.32,25.45S382,441,378,445.35l48,39.23,31.72-38.41Z" style="fill: rgb(69, 90, 100); transform-origin: 417.86px 455.61px;" id="elmchuuvbvlq" class="animable"></path><path d="M430.9,462.14a2.53,2.53,0,0,1-.48,3.34,2.43,2.43,0,0,1-3.32-.44,2.66,2.66,0,0,1,.52-3.53c1.06-.65,2.93-.31,3.4.84" style="fill: rgb(224, 224, 224); transform-origin: 428.988px 463.564px;" id="elmbd4xufbfuj" class="animable"></path><path d="M426,484.58l3.15-3.82-47.26-36.29s-2.9-.82-3.89.88Z" style="fill: rgb(224, 224, 224); transform-origin: 403.575px 464.426px;" id="elkxaw1fhukwh" class="animable"></path><path d="M413.78,451.21c-.19.24.9,1.3,1.43,3s.35,3.18.64,3.27,1-1.56.36-3.6S413.9,451,413.78,451.21Z" style="fill: rgb(38, 50, 56); transform-origin: 415.114px 454.331px;" id="eltdwa4me2tiq" class="animable"></path><path d="M407,449.18c-.24.18.45,1.41.44,3.05s-.64,2.88-.4,3.06,1.47-1,1.45-3.07S407.23,449,407,449.18Z" style="fill: rgb(38, 50, 56); transform-origin: 407.72px 452.235px;" id="elmqgbqhxye" class="animable"></path><path d="M399.26,452.86c.17.23,1.45-.68,1.9-2.45s-.23-3.18-.49-3.07-.14,1.36-.53,2.81S399,452.65,399.26,452.86Z" style="fill: rgb(38, 50, 56); transform-origin: 400.258px 450.115px;" id="elusm0mfknp3l" class="animable"></path><path d="M418.82,445.9c-.07.29,1.27.85,2.52,2s1.94,2.43,2.23,2.33,0-1.75-1.52-3.11S418.86,445.62,418.82,445.9Z" style="fill: rgb(38, 50, 56); transform-origin: 421.244px 448.008px;" id="el63tysq55t7" class="animable"></path><path d="M422.81,440.84c-.08.09.73,1,2.42,2a14.1,14.1,0,0,0,3.14,1.28,14.75,14.75,0,0,0,2,.4,3.83,3.83,0,0,0,1.19,0,1.34,1.34,0,0,0,1.13-1.16,1.69,1.69,0,0,0-.59-1.38,4.26,4.26,0,0,0-1-.61,11,11,0,0,0-1.92-.71,11.23,11.23,0,0,0-3.4-.36c-2,.12-3.06.69-3,.8s1.18-.13,3-.05a12.62,12.62,0,0,1,3.13.54,11.83,11.83,0,0,1,1.73.7c.62.29,1.05.64,1,1,0,.12-.05.16-.27.23a3.37,3.37,0,0,1-.88,0,16.51,16.51,0,0,1-4.91-1.32C423.87,441.38,422.91,440.71,422.81,440.84Z" style="fill: rgb(38, 50, 56); transform-origin: 427.735px 442.427px;" id="elq454w0wleh" class="animable"></path><path d="M422.85,441.42c0,.11,1.2-.35,2.53-1.8a10.24,10.24,0,0,0,1.82-2.9,9.73,9.73,0,0,0,.58-2,2.57,2.57,0,0,0-.54-2.47,1.45,1.45,0,0,0-1.55-.15,4.23,4.23,0,0,0-1,.68,6.62,6.62,0,0,0-1.32,1.62,7,7,0,0,0-1,3.32c-.08,2,.67,3.09.76,3a23.31,23.31,0,0,1,0-3,7.16,7.16,0,0,1,1.09-2.88,6.5,6.5,0,0,1,1.18-1.35c.49-.45,1-.7,1.17-.5a1.78,1.78,0,0,1,.19,1.48,9.22,9.22,0,0,1-.47,1.79,11,11,0,0,1-1.49,2.78C423.71,440.61,422.75,441.28,422.85,441.42Z" style="fill: rgb(38, 50, 56); transform-origin: 425.129px 436.689px;" id="elulpm9fiebcr" class="animable"></path><path d="M402.64,423.91l-20.93,25.84s-33.3-12.59-37.63-8.19l48.65,42.37L427,445Z" style="fill: rgb(69, 90, 100); transform-origin: 385.54px 453.92px;" id="el24f1sexo04j" class="animable"></path><path d="M398.59,460.75a2.62,2.62,0,0,1-.6,3.46,2.54,2.54,0,0,1-3.44-.56,2.79,2.79,0,0,1,.66-3.67c1.12-.64,3.05-.23,3.51,1" style="fill: rgb(224, 224, 224); transform-origin: 396.563px 462.163px;" id="el0nrrpm53cypi" class="animable"></path><path d="M392.73,483.93l3.41-3.86-48-39.3s-3-.95-4.07.79Z" style="fill: rgb(224, 224, 224); transform-origin: 370.105px 462.221px;" id="elce2tgx83orn" class="animable"></path><path d="M381.14,448.82c-.2.24.89,1.38,1.4,3.17s.25,3.32.55,3.42,1.15-1.59.5-3.74S381.28,448.55,381.14,448.82Z" style="fill: rgb(38, 50, 56); transform-origin: 382.472px 452.095px;" id="elmqviz5t3alf" class="animable"></path><path d="M374.2,446.48c-.26.19.42,1.49.35,3.19s-.76,3-.52,3.17,1.57-1,1.62-3.14S374.4,446.26,374.2,446.48Z" style="fill: rgb(38, 50, 56); transform-origin: 374.815px 449.656px;" id="elsjdbz5fjqo9" class="animable"></path><path d="M366,450.07c.17.24,1.53-.66,2.06-2.5s-.14-3.31-.41-3.2-.19,1.4-.65,2.9S365.76,449.84,366,450.07Z" style="fill: rgb(38, 50, 56); transform-origin: 367.107px 447.236px;" id="elzpyvgbrmdxf" class="animable"></path><path d="M386.56,443.46c-.09.3,1.29.92,2.55,2.18s1.94,2.6,2.24,2.5,0-1.82-1.47-3.28S386.61,443.17,386.56,443.46Z" style="fill: rgb(38, 50, 56); transform-origin: 389.005px 445.748px;" id="elm4ox2vwvs5h" class="animable"></path><path d="M390.88,438.32c-.09.1.72,1.06,2.45,2.11a14.62,14.62,0,0,0,3.23,1.44,15.24,15.24,0,0,0,2,.47,4,4,0,0,0,1.24.07,1.37,1.37,0,0,0,1.21-1.17,1.77,1.77,0,0,0-.57-1.45,4.56,4.56,0,0,0-1-.67,12.35,12.35,0,0,0-2-.8,11.53,11.53,0,0,0-3.53-.48c-2,.06-3.2.62-3.16.73s1.24-.09,3.14.05a13.22,13.22,0,0,1,3.24.66,13,13,0,0,1,1.77.79c.63.32,1.08.69,1,1,0,.13,0,.17-.29.22a3,3,0,0,1-.91-.05,17,17,0,0,1-5.07-1.53C392,438.92,391,438.19,390.88,438.32Z" style="fill: rgb(38, 50, 56); transform-origin: 395.882px 440.134px;" id="elehsuxol0z44" class="animable"></path><path d="M390.89,438.93c.05.11,1.27-.33,2.69-1.79a10.52,10.52,0,0,0,2.66-5,2.64,2.64,0,0,0-.48-2.58,1.51,1.51,0,0,0-1.61-.21,4.37,4.37,0,0,0-1,.67,7.29,7.29,0,0,0-1.43,1.64,7.46,7.46,0,0,0-1.15,3.43c-.15,2.09.6,3.23.69,3.17s-.25-1.23.08-3.07a7.53,7.53,0,0,1,1.22-3,6.78,6.78,0,0,1,1.27-1.36c.53-.46,1.09-.7,1.23-.48a1.83,1.83,0,0,1,.16,1.54,10.37,10.37,0,0,1-.55,1.84,11.69,11.69,0,0,1-1.64,2.85C391.82,438.11,390.79,438.78,390.89,438.93Z" style="fill: rgb(38, 50, 56); transform-origin: 393.469px 434.077px;" id="el5w0rol6mxi9" class="animable"></path><path d="M418.62,428.29c-1-1.75,37.84,25.14,37.84,25.14l36.64-40.68,68.45,69,5.69-29.24,10.39-63.87-58.38-58.11s-9.71-9.48-24.43-1.15C482.75,336.21,418.62,428.29,418.62,428.29Z" style="fill: rgb(38, 50, 56); transform-origin: 498.116px 403.852px;" id="el51l94cxwqzv" class="animable"></path><path d="M385.06,434.91l69.62-89.63s18.53-17.51,37.94-12.17c11.57,3.18,77.39,67.41,77.39,67.41l20.47,8.3,31.25,53.61s-39.31,35.75-67.92,15.05c-26.83-19.41-74.06-80.87-74.06-80.87l-58.7,64.29Z" style="fill: rgb(38, 50, 56); transform-origin: 503.395px 408.013px;" id="eltpvd8bkc3j" class="animable"></path><path d="M524.93,450.32a1.79,1.79,0,0,1-.26-.24l-.72-.75c-.64-.65-1.54-1.66-2.71-3-2.32-2.62-5.64-6.45-9.72-11.26-8.17-9.6-19.43-23.07-32-38.31H480c-1.79,2-3.68,4.15-5.59,6.31C460,419.35,446.73,433.9,437,444.3c-4.85,5.21-8.83,9.37-11.6,12.23-1.37,1.4-2.45,2.49-3.22,3.26l-.85.84q-.28.28-.3.27a1.76,1.76,0,0,1,.26-.31l.8-.88,3.14-3.34L436.7,444c9.63-10.48,22.8-25.07,37.23-41.3l5.59-6.31.24-.26.22.27c12.57,15.25,23.77,28.76,31.85,38.44l9.58,11.37,2.63,3,.68.78A1.51,1.51,0,0,1,524.93,450.32Z" style="fill: rgb(69, 90, 100); transform-origin: 472.98px 428.515px;" id="elzjq8tqajq2" class="animable"></path><path d="M589.45,451.4a6.77,6.77,0,0,1-1.52-.6,19.37,19.37,0,0,1-3.78-2.37A21.68,21.68,0,0,1,578,421.75a19.53,19.53,0,0,1,2.36-3.79,7.08,7.08,0,0,1,1.1-1.2,34,34,0,0,0-3.06,5.17,21.91,21.91,0,0,0,6,26.17A36.65,36.65,0,0,0,589.45,451.4Z" style="fill: rgb(69, 90, 100); transform-origin: 582.613px 434.08px;" id="eldyu19mae5im" class="animable"></path><path d="M532,364.23c.11-.12,8.46,8.07,18.63,18.29s18.32,18.6,18.2,18.72-8.47-8.07-18.64-18.29S531.85,364.35,532,364.23Z" style="fill: rgb(69, 90, 100); transform-origin: 550.415px 382.735px;" id="el5k5uxdwb1mr" class="animable"></path><path d="M651,321.15c-11.78-32-33.63-44.27-33.63-44.27l-36.25,15.56-10.45,5a25.93,25.93,0,0,0-3.61,2.1L528.5,326.4l26.08,34.78,18.7-12.61s3.6,19.07,2.85,25.93c-1.21,11.08-8,27.1-8,27.1s27.08,28.52,31.22,43.36,22.44,21.75,31.07,21.4,2.07-6.21,2.07-6.21,16.27-20.46,20.76-47.73S659.53,344.25,651,321.15Z" style="fill: rgb(255, 114, 94); transform-origin: 592.755px 371.626px;" id="elnjzli90jlco" class="animable"></path><path d="M611.46,448.1a2.89,2.89,0,0,1-.3-.59l-.75-1.73c-.63-1.51-1.58-3.67-2.81-6.32s-2.78-5.76-4.61-9.15-4-7.05-6.4-10.79-4.9-7.19-7.23-10.26-4.55-5.76-6.47-7.95-3.49-4-4.61-5.16L577,394.76c-.29-.32-.43-.49-.41-.51a3.33,3.33,0,0,1,.5.43l1.35,1.31c1.17,1.14,2.81,2.85,4.77,5s4.21,4.84,6.59,7.89,4.85,6.53,7.29,10.27,4.56,7.45,6.39,10.86,3.33,6.56,4.5,9.24,2.08,4.88,2.64,6.41l.65,1.78A2.37,2.37,0,0,1,611.46,448.1Z" style="fill: rgb(38, 50, 56); transform-origin: 594.024px 421.175px;" id="elmkovcwvoepr" class="animable"></path><g id="el47uwsp3ti7r"><g style="opacity: 0.3; transform-origin: 600.491px 422.658px;" class="animable"><path d="M620.06,438.3c-1.4-3.52-4.61-5.94-7.57-8.3-11.9-9.49-22-21-32.1-32.39l26,37.74c.82,2.56,1.68,6.61,3.16,8.85s4.16,4,6.78,3.38C620.05,446.76,621.46,441.82,620.06,438.3Z" id="elhfvij8n3dgh" class="animable" style="transform-origin: 600.491px 422.658px;"></path></g></g><path d="M587.71,340a32,32,0,0,0,5.13-5.14,25.43,25.43,0,0,0,3.75-6.89,23.75,23.75,0,0,0-.94-18.7,25.45,25.45,0,0,0-4.41-6.48,32.09,32.09,0,0,0-5.62-4.6,2.11,2.11,0,0,1,.46.21c.29.17.74.38,1.26.73a22.94,22.94,0,0,1,4.16,3.4,25.09,25.09,0,0,1,4.59,6.53,23.82,23.82,0,0,1,.95,19.07,25.05,25.05,0,0,1-3.9,7,23.08,23.08,0,0,1-3.8,3.8c-.49.41-.92.66-1.19.86A2.55,2.55,0,0,1,587.71,340Z" style="fill: rgb(38, 50, 56); transform-origin: 592.105px 319.095px;" id="eljt5u8g7xeds" class="animable"></path><path d="M453.8,335.84l-6.6,17.69a55.58,55.58,0,0,1-11.31-.6c-6.71-1.17-14.26-8.26-18.68-11.49a7.3,7.3,0,0,1-3.07-7.73l-4.61-3.23c-4.86-3.86,0-6.11,0-6.11L430.6,331l14,2,9.16,2.81" style="fill: rgb(255, 191, 157); transform-origin: 430.585px 338.983px;" id="el56zaohupz6" class="animable"></path><path d="M413,333.23c-.11.17,2.31,1.82,5.39,3.66s5.67,3.21,5.77,3-2.3-1.82-5.39-3.67S413.13,333.05,413,333.23Z" style="fill: rgb(255, 154, 108); transform-origin: 418.58px 336.562px;" id="el8weu9v4xum6" class="animable"></path><path d="M453.9,335.57c.17.66,56.79,3.47,56.79,3.47l19.25-10.72,18.46,24.61S523.71,366,519.13,367,441,353,441,353Z" style="fill: rgb(255, 191, 157); transform-origin: 494.7px 347.684px;" id="eljyw1xtgnq3r" class="animable"></path><path d="M448.07,328.91a12.35,12.35,0,0,0-3.23-2l-7.49-3.56a2.37,2.37,0,0,0-1.43-.33c-.94.2-1.23,1.39-1.26,2.35a23.36,23.36,0,0,0,2.32,11l14.93-1.86C450.43,332.84,449.75,330.48,448.07,328.91Z" style="fill: rgb(255, 191, 157); transform-origin: 443.278px 329.69px;" id="elherwxlzn0wn" class="animable"></path></g><defs>     <filter id="active" height="200%">         <feMorphology in="SourceAlpha" result="DILATED" operator="dilate" radius="2"></feMorphology>                <feFlood flood-color="#32DFEC" flood-opacity="1" result="PINK"></feFlood>        <feComposite in="PINK" in2="DILATED" operator="in" result="OUTLINE"></feComposite>        <feMerge>            <feMergeNode in="OUTLINE"></feMergeNode>            <feMergeNode in="SourceGraphic"></feMergeNode>        </feMerge>    </filter>    <filter id="hover" height="200%">        <feMorphology in="SourceAlpha" result="DILATED" operator="dilate" radius="2"></feMorphology>                <feFlood flood-color="#ff0000" flood-opacity="0.5" result="PINK"></feFlood>        <feComposite in="PINK" in2="DILATED" operator="in" result="OUTLINE"></feComposite>        <feMerge>            <feMergeNode in="OUTLINE"></feMergeNode>            <feMergeNode in="SourceGraphic"></feMergeNode>        </feMerge>            <feColorMatrix type="matrix" values="0   0   0   0   0                0   1   0   0   0                0   0   0   0   0                0   0   0   1   0 "></feColorMatrix>    </filter></defs></svg>